<?xml version="1.0" standalone="no"?>
<!DOCTYPE svg PUBLIC "-//W3C//DTD SVG 20010904//EN"
 "http://www.w3.org/TR/2001/REC-SVG-20010904/DTD/svg10.dtd">
<svg version="1.0" xmlns="http://www.w3.org/2000/svg"
 width="512.000000pt" height="512.000000pt" viewBox="0 0 512.000000 512.000000"
 preserveAspectRatio="xMidYMid meet">
<metadata>
Created by potrace 1.14, written by Peter Selinger 2001-2017
</metadata>
<g transform="translate(0.000000,512.000000) scale(0.100000,-0.100000)"
fill="#000000" stroke="none">
<path d="M2379 5116 c-2 -2 -35 -6 -74 -10 -38 -3 -97 -10 -130 -16 -33 -6
-76 -13 -95 -16 -82 -12 -305 -76 -411 -117 -155 -61 -235 -98 -359 -169 -723
-415 -1216 -1165 -1297 -1975 -15 -152 -8 -504 13 -604 2 -13 7 -40 10 -59 70
-443 291 -904 604 -1260 115 -132 216 -226 407 -380 25 -20 221 -149 258 -170
318 -178 638 -284 975 -324 112 -13 451 -14 550 -2 601 77 1141 339 1561 756
176 175 346 398 424 555 11 22 29 56 41 75 30 51 118 271 148 370 26 88 61
229 71 290 6 38 16 94 21 125 26 140 25 629 -1 750 -2 11 -7 37 -10 58 -16
116 -82 368 -124 474 -237 600 -683 1083 -1272 1379 -242 121 -511 207 -764
245 -38 5 -83 12 -100 15 -33 6 -441 15 -446 10z m416 -470 c11 -2 45 -7 75
-11 187 -24 423 -100 624 -201 105 -52 307 -180 351 -221 11 -10 34 -29 50
-41 138 -107 365 -371 465 -543 88 -149 206 -426 224 -522 2 -12 11 -49 19
-82 35 -134 51 -277 51 -460 0 -201 -7 -267 -59 -505 -22 -102 -91 -284 -159
-420 -247 -494 -694 -884 -1214 -1059 -93 -32 -223 -66 -284 -75 -21 -3 -53
-8 -70 -11 -108 -17 -191 -22 -338 -20 -91 2 -176 5 -190 9 -14 3 -43 7 -65
10 -142 16 -378 85 -530 154 -584 265 -1022 760 -1201 1356 -23 77 -49 192
-59 258 -2 18 -7 51 -11 73 -9 62 -12 332 -3 410 12 105 17 142 23 162 2 10 7
34 10 53 4 19 11 53 16 75 6 22 13 49 15 60 18 81 104 294 168 415 179 338
483 659 807 850 63 38 265 140 275 140 4 0 21 6 38 14 82 37 285 95 387 111
25 4 54 9 65 11 11 3 54 7 95 11 41 3 77 7 78 8 5 5 323 -4 347 -9z"/>
<path d="M1718 3344 c-165 -26 -277 -83 -398 -202 -148 -148 -212 -314 -213
-562 -1 -149 3 -195 27 -287 65 -249 249 -434 495 -499 146 -38 327 -37 456 2
169 51 334 177 423 322 l30 49 -152 76 c-83 43 -154 77 -158 77 -3 0 -17 -19
-31 -42 -67 -114 -163 -170 -290 -169 -68 1 -101 8 -147 31 -130 66 -193 201
-194 415 -1 221 55 354 175 420 74 40 192 45 271 12 57 -23 133 -92 158 -142
8 -16 15 -32 17 -34 3 -5 312 153 341 175 9 6 -77 123 -128 174 -148 148 -428
224 -682 184z"/>
<path d="M3278 3354 c-2 -1 -25 -4 -53 -7 -52 -5 -61 -7 -135 -27 -64 -17
-168 -73 -236 -128 -185 -150 -275 -371 -269 -664 6 -276 97 -477 280 -615
212 -161 543 -194 795 -80 69 32 180 110 232 164 43 45 131 163 125 169 -7 7
-306 154 -314 154 -5 0 -17 -16 -26 -35 -38 -79 -131 -153 -214 -170 -61 -12
-151 -6 -204 15 -104 41 -173 135 -205 277 -11 51 -13 247 -3 302 36 191 135
290 299 299 104 5 176 -22 247 -95 29 -30 53 -60 53 -67 0 -8 6 -19 14 -25 12
-10 36 -1 123 46 59 33 134 72 165 88 l57 30 -22 37 c-103 174 -293 296 -505
324 -42 5 -200 12 -204 8z"/>
</g>
</svg>
